<svg xmlns="http://www.w3.org/2000/svg" viewBox="0 0 2000 2000"><path d="M759.41 378l-8.262 4.904-2.699 1.604C631.658 453.72 551.284 517.185 498.23 579.16c-53.13 62.06-78.817 124.548-79.547 184.787-1.454 119.88 86.972 209.719 165.425 290.067 78.394 80.286 148.323 156.002 154.905 218.664 3.354 31.938-4.195 64.019-39.02 107.943-34.678 43.74-97.616 96.128-198.24 154.785L353.193 1622h916.854l10.85-6.313.011-.01c106.636-62.16 178.477-119.59 224.254-177.33 45.914-57.91 64.594-118.499 58.62-175.378-11.838-112.702-103.646-194.827-180.829-273.873-77.243-79.108-139.852-153.721-139-224.024.43-35.49 14.072-75.084 57.219-125.484 43.073-50.314 115.696-109.181 227.031-175.158v-.002L1674.045 378H759.41zm25.842 92.918h564.643c-49.73 37.078-89.049 72.898-119.307 108.242-53.13 62.06-78.817 124.548-79.547 184.787-1.453 119.882 86.977 209.72 165.43 290.067 78.393 80.286 148.316 156 154.898 218.664 3.355 31.938-4.193 64.019-39.017 107.943-33.397 42.123-93.456 92.386-187.79 148.461h-566.09c39.27-30.627 70.469-60.635 94.33-90.732 45.914-57.911 64.594-118.5 58.62-175.38-11.838-112.701-103.645-194.826-180.828-273.872-77.243-79.108-139.85-153.721-138.998-224.024.43-35.49 14.07-75.084 57.216-125.484 41.627-48.624 111.275-105.346 216.44-168.672zM653.13 629.393v42.92h441.398v-42.92H653.131zm-16.402 231.175v42.918h456.384v-42.918H636.73zm206.794 231.17v42.918h441.989v-42.918H843.523zm63.198 231.174v42.918h457.986v-42.918H906.721z" fill="#333333"/></svg>